<svg width="40" height="40" viewBox="0 0 40 40" fill="none" xmlns="http://www.w3.org/2000/svg">
<circle cx="20" cy="20" r="20" fill="#544DDB"/>
<path d="M14.594 27V25.506C15.764 24.612 16.787 23.802 17.663 23.076C18.539 22.344 19.286 21.681 19.904 21.087C20.522 20.493 21.023 19.953 21.407 19.467C21.791 18.975 22.07 18.525 22.244 18.117C22.424 17.703 22.514 17.313 22.514 16.947C22.514 16.491 22.406 16.077 22.19 15.705C21.974 15.327 21.68 15.027 21.308 14.805C20.942 14.583 20.528 14.472 20.066 14.472C19.622 14.472 19.211 14.586 18.833 14.814C18.461 15.036 18.134 15.366 17.852 15.804C17.57 16.242 17.336 16.779 17.15 17.415L14.702 16.272C14.882 15.594 15.14 14.985 15.476 14.445C15.818 13.899 16.226 13.434 16.7 13.05C17.18 12.666 17.717 12.372 18.311 12.168C18.905 11.964 19.547 11.862 20.237 11.862C21.287 11.862 22.22 12.081 23.036 12.519C23.852 12.951 24.491 13.542 24.953 14.292C25.421 15.042 25.655 15.897 25.655 16.857C25.655 17.337 25.589 17.808 25.457 18.27C25.325 18.732 25.118 19.2 24.836 19.674C24.554 20.142 24.188 20.625 23.738 21.123C23.288 21.615 22.745 22.134 22.109 22.68C21.479 23.22 20.744 23.796 19.904 24.408H25.925V27H14.594Z" fill="white"/>
</svg>
