<svg width="40" height="40" viewBox="0 0 40 40" fill="none" xmlns="http://www.w3.org/2000/svg">
<circle cx="20" cy="20" r="20" fill="#544DDB"/>
<path d="M19.76 27.288C18.872 27.288 18.059 27.135 17.321 26.829C16.583 26.523 15.959 26.094 15.449 25.542C14.939 24.99 14.582 24.339 14.378 23.589L17.078 22.311C17.12 22.791 17.252 23.217 17.474 23.589C17.702 23.955 18.011 24.243 18.401 24.453C18.797 24.657 19.253 24.759 19.769 24.759C20.489 24.759 21.062 24.561 21.488 24.165C21.92 23.769 22.136 23.244 22.136 22.59C22.136 22.122 22.031 21.705 21.821 21.339C21.611 20.967 21.326 20.676 20.966 20.466C20.612 20.25 20.216 20.142 19.778 20.142C19.526 20.142 19.31 20.178 19.13 20.25V18.306H19.805C20.195 18.306 20.546 18.21 20.858 18.018C21.176 17.82 21.428 17.559 21.614 17.235C21.806 16.911 21.902 16.563 21.902 16.191C21.902 15.825 21.806 15.495 21.614 15.201C21.428 14.907 21.176 14.673 20.858 14.499C20.54 14.325 20.183 14.238 19.787 14.238C19.391 14.238 19.022 14.328 18.68 14.508C18.344 14.688 18.065 14.934 17.843 15.246C17.621 15.558 17.48 15.918 17.42 16.326L15.107 15.246C15.275 14.574 15.584 13.986 16.034 13.482C16.484 12.972 17.036 12.579 17.69 12.303C18.35 12.021 19.067 11.88 19.841 11.88C20.747 11.88 21.554 12.066 22.262 12.438C22.976 12.81 23.537 13.317 23.945 13.959C24.353 14.595 24.557 15.321 24.557 16.137C24.557 16.557 24.494 16.95 24.368 17.316C24.248 17.682 24.074 18.015 23.846 18.315C23.618 18.615 23.342 18.873 23.018 19.089C23.438 19.311 23.801 19.593 24.107 19.935C24.413 20.277 24.647 20.67 24.809 21.114C24.971 21.552 25.052 22.041 25.052 22.581C25.052 23.481 24.83 24.288 24.386 25.002C23.942 25.71 23.321 26.268 22.523 26.676C21.731 27.084 20.81 27.288 19.76 27.288Z" fill="white"/>
</svg>
