<svg width="40" height="40" viewBox="0 0 40 40" fill="none" xmlns="http://www.w3.org/2000/svg">
<circle cx="20" cy="20" r="20" fill="#544DDB"/>
<path d="M19.832 27.27C19.04 27.27 18.293 27.147 17.591 26.901C16.889 26.655 16.277 26.292 15.755 25.812C15.233 25.332 14.843 24.744 14.585 24.048L16.898 22.932C17.072 23.508 17.417 23.97 17.933 24.318C18.455 24.666 19.067 24.84 19.769 24.84C20.315 24.84 20.783 24.735 21.173 24.525C21.569 24.309 21.872 24.009 22.082 23.625C22.298 23.241 22.406 22.8 22.406 22.302C22.406 21.684 22.244 21.156 21.92 20.718C21.602 20.274 21.149 19.935 20.561 19.701C19.979 19.461 19.289 19.341 18.491 19.341C17.939 19.341 17.414 19.416 16.916 19.566C16.418 19.716 15.953 19.935 15.521 20.223L16.79 12.15H24.368V14.706H19.274L18.833 17.613C20.201 17.319 21.431 17.415 22.523 17.901C23.093 18.093 23.585 18.39 23.999 18.792C24.419 19.188 24.743 19.668 24.971 20.232C25.205 20.796 25.322 21.426 25.322 22.122C25.322 23.19 25.079 24.111 24.593 24.885C24.107 25.653 23.45 26.244 22.622 26.658C21.794 27.066 20.864 27.27 19.832 27.27Z" fill="white"/>
</svg>
